<svg width="32px" height="32px" viewBox="0 0 32 32">
    <g stroke="none" stroke-width="1" fill="none" fill-rule="evenodd">
        <rect id="Rectangle-15" fill="#FD6EB6" x="0" y="0" width="32" height="32" rx="8"></rect>
        <g transform="translate(8.000000, 9.000000)">
            <g>
                <path d="M0,14 L0,2.13162821e-14 L9.6,2.13162821e-14 C15,0 16,5.83066057 16,7.53846154 C16,9.46161774 15.2915466,11.3104514 13.8666667,12.9230769 C12.8226786,13.4038558 11.3525306,13.9049115 9.6,14 L0,14 Z" id="Fill-1" fill="#FFFFFF"></path>
                <polygon id="Fill-6" fill="#000000" points="3 11 5 11 5 7 3 7"></polygon>
                <path d="M5,3.66666667 C5,4.5520801 4.55224997,5 3.66666667,5 C3.44776827,5 3,4.5520801 3,3.66666667 C3,3.44771927 3.44776827,3 3.66666667,3 C4.55224997,3 5,3.44771927 5,3.66666667" id="Fill-8" fill="#000000"></path>
                <path d="M8.46666667,1.92307692 C10.4079761,1.92307692 11.6823262,2.32849663 12.2,2.84615385 C13.5611906,3.96257403 14.0666667,5.27622188 14.0666667,7.46153846 C14.0666667,10.4162265 12.3697356,12.0769231 8.46666667,12.0769231 L1.93333333,12.0769231 L1.93333333,1.92307692 L8.46666667,1.92307692 Z M1,1 L1,13 L9.4,13 C10.8071993,12.9741772 12.2000046,12.544799 13.1333333,12.0769231 C14.3905188,10.7127004 15,9.12528085 15,7.46153846 C15,5.98407518 14.9148168,1.12318831 9.4,1 L1,1 Z" id="Fill-9" fill="#000000"></path>
                <path d="M8.5828131,11.047881 L6,11.047881 L6,3 L8.5828131,3 L8.47857467,3 C10.6325553,3 12.9253173,3.85629092 12.9253173,7.0345189 C12.9253173,10.3944543 10.6325553,11.047881 8.47857467,11.047881 L8.5828131,11.047881 Z" id="Fill-10" fill="#CD0067"></path>
            </g>
            <g transform="translate(5.000000, 5.000000)" fill="#FFFFFF">
                <path d="M0.443596992,0.369047619 L0.443596992,1.80804762 L0.77593985,1.80804762 C0.900234586,1.80804762 0.989954887,1.80111905 1.04510075,1.78728571 C1.1172812,1.7695 1.17716692,1.73938095 1.22480602,1.69690476 C1.27239699,1.65440476 1.3112782,1.58452381 1.34135338,1.48719048 C1.37142857,1.38988095 1.38646617,1.2572619 1.38646617,1.08928571 C1.38646617,0.921333333 1.37142857,0.792404762 1.34135338,0.7025 C1.3112782,0.612595238 1.26917293,0.542452381 1.21503759,0.492071429 C1.1608782,0.441690476 1.09221053,0.407595238 1.00901053,0.389785714 C0.946839098,0.37597619 0.825046617,0.369047619 0.643609023,0.369047619 L0.443596992,0.369047619 Z M0,0 L0.811524812,0 C0.994526316,0 1.13405113,0.0138571429 1.23007519,0.0415714286 C1.35906165,0.0791904762 1.46956992,0.146047619 1.56157594,0.242071429 C1.65358195,0.338095238 1.72357293,0.455690476 1.77157293,0.594761905 C1.81957293,0.733857143 1.84360902,0.905380952 1.84360902,1.10933333 C1.84360902,1.28852381 1.82108872,1.44295238 1.77609624,1.57266667 C1.72109474,1.73107143 1.64258647,1.85928571 1.54059549,1.95728571 C1.46357895,2.03154762 1.35956692,2.08947619 1.2285594,2.13104762 C1.13053835,2.1617381 0.999530827,2.17709524 0.835536842,2.17709524 L0,2.17709524 L0,0 Z" id="Fill-12"></path>
                <path d="M0.871675188,0.119047619 C1.04813233,0.119047619 1.1832782,0.132238095 1.2733594,0.158238095 C1.3912782,0.192619048 1.49384662,0.254666667 1.5780812,0.342547619 C1.6636391,0.431857143 1.72982857,0.543214286 1.77482105,0.673547619 C1.82046316,0.805785714 1.84360902,0.972428571 1.84360902,1.16885714 C1.84360902,1.34059524 1.82197895,1.48997619 1.77934436,1.61285714 C1.72771128,1.76159524 1.65350977,1.88314286 1.55883308,1.97411905 C1.48881805,2.04161905 1.39178346,2.09535714 1.27035188,2.13390476 C1.17887519,2.16252381 1.05275188,2.17709524 0.895687218,2.17709524 L0.120300752,2.17709524 L0.120300752,0.119047619 L0.871675188,0.119047619 Z M0,0 L0,2.29614286 L0.895687218,2.29614286 C1.06507068,2.29614286 1.20341654,2.27971429 1.30685113,2.24730952 C1.4464,2.20304762 1.55933835,2.13985714 1.64270677,2.05945238 C1.7510015,1.95538095 1.83528421,1.81811905 1.89312481,1.65152381 C1.94009023,1.51616667 1.96390977,1.3537619 1.96390977,1.16885714 C1.96390977,0.959333333 1.93857444,0.779738095 1.88864962,0.635047619 C1.83805113,0.488428571 1.76291128,0.362452381 1.66537143,0.260642857 C1.56638797,0.157333333 1.44589474,0.0844285714 1.30721203,0.044 C1.20459549,0.0143809524 1.06218346,0 0.871675188,0 L0,0 Z" id="Fill-14"></path>
                <path d="M0.260162406,0.119047619 C0.479494737,0.119047619 0.57277594,0.129547619 0.612403008,0.138357143 C0.68484812,0.153857143 0.744589474,0.183285714 0.79037594,0.225904762 C0.836884211,0.269190476 0.874057143,0.331714286 0.90081203,0.411690476 C0.928721805,0.495119048 0.942869173,0.61897619 0.942869173,0.779761905 C0.942869173,0.94102381 0.928577444,1.06904762 0.900378947,1.1602619 C0.873696241,1.24664286 0.840276692,1.30819048 0.801082707,1.34316667 C0.761094737,1.37883333 0.709293233,1.40469048 0.647121805,1.42002381 C0.59686015,1.43261905 0.511278195,1.439 0.392493233,1.439 L0.120324812,1.439 L0.120324812,0.119047619 L0.260162406,0.119047619 Z M0,0 L0,1.55804762 L0.392493233,1.55804762 C0.523043609,1.55804762 0.615915789,1.55064286 0.676451128,1.53547619 C0.757702256,1.51545238 0.826827068,1.48047619 0.88163609,1.43157143 C0.938033083,1.3812381 0.981798496,1.30388095 1.01543459,1.19507143 C1.04755489,1.09114286 1.06316992,0.955285714 1.06316992,0.779761905 C1.06316992,0.603785714 1.04741053,0.471166667 1.01502556,0.374261905 C0.981894737,0.275285714 0.934039098,0.196190476 0.872806015,0.139190476 C0.810851128,0.0815238095 0.731957895,0.0421428571 0.638291729,0.0220952381 C0.571548872,0.00726190476 0.447711278,0 0.260162406,0 L0,0 Z" id="Fill-16"></path>
                <polygon id="Fill-18" points="2 2.17709524 2 0 3.62858346 0 3.62858346 0.369047619 2.44359699 0.369047619 2.44359699 0.851190476 3.54586466 0.851190476 3.54586466 1.2202381 2.44359699 1.2202381 2.44359699 1.80804762 3.67068872 1.80804762 3.67068872 2.17709524"></polygon>
                <path d="M3.62858346,0.119047619 L3.62858346,0.369047619 L2.44362105,0.369047619 L2.44362105,0.970238095 L3.54586466,0.970238095 L3.54586466,1.2202381 L2.44362105,1.2202381 L2.44362105,1.92709524 L3.67068872,1.92709524 L3.67068872,2.17709524 L2.12030075,2.17709524 L2.12030075,0.119047619 L3.62858346,0.119047619 Z M2,0 L2,2.29614286 L3.79098947,2.29614286 L3.79098947,1.80804762 L2.5639218,1.80804762 L2.5639218,1.33928571 L3.66616541,1.33928571 L3.66616541,0.851190476 L2.5639218,0.851190476 L2.5639218,0.488095238 L3.74888421,0.488095238 L3.74888421,0 L2,0 Z" id="Fill-20"></path>
                <path d="M5.38973835,1.314 L5.08648421,0.507452381 L4.78931729,1.314 L5.38973835,1.314 Z M6.2075188,2.17709524 L5.72424662,2.17709524 L5.53229474,1.68304762 L4.65337744,1.68304762 L4.47129023,2.17709524 L4,2.17709524 L4.85490526,0 L5.32773534,0 L6.2075188,2.17709524 Z" id="Fill-22"></path>
                <path d="M5.37491729,0.119047619 C5.40301955,0.188571429 6.14655038,2.02854762 6.20658045,2.17709524 L5.85347368,2.17709524 C5.82823459,2.11209524 5.66149774,1.68304762 5.66149774,1.68304762 L4.69918797,1.68304762 C4.69918797,1.68304762 4.54154586,2.1107381 4.51712481,2.17709524 L4.17580752,2.17709524 C4.23376842,2.0295 4.95629474,0.189571429 4.98398797,0.119047619 L5.37491729,0.119047619 Z M4.90165414,0 L4,2.29614286 L4.60128722,2.29614286 C4.60128722,2.29614286 4.75890526,1.86842857 4.78335038,1.80209524 L5.57889925,1.80209524 C5.60411429,1.86707143 5.77085113,2.29614286 5.77085113,2.29614286 L6.38426466,2.29614286 L5.4563609,0 L4.90165414,0 Z" id="Fill-24"></path>
                <path d="M5.38366316,0.344428571 C5.44958797,0.519761905 5.56105865,0.816190476 5.59979549,0.919238095 L5.17188571,0.919238095 C5.20970827,0.816619048 5.31896541,0.520095238 5.38366316,0.344428571 L5.38366316,0.344428571 Z M5,1.03828571 L5.77293233,1.03828571 L5.38253233,0 L5,1.03828571 Z" id="Fill-26"></path>
                <polygon id="Fill-28" points="7 2.1592381 7 0 7.44359699 0 7.44359699 1.79019048 8.54887218 1.79019048 8.54887218 2.1592381"></polygon>
                <path d="M7.44359699,0.119047619 L7.44359699,1.9092381 L8.54887218,1.9092381 L8.54887218,2.1592381 L7.12027669,2.1592381 L7.12027669,0.119047619 L7.44359699,0.119047619 Z M7,0 L7,2.27828571 L8.66917293,2.27828571 L8.66917293,1.79019048 L7.56389774,1.79019048 L7.56389774,0 L7,0 Z" id="Fill-30"></path>
            </g>
        </g>
    </g>
</svg>
