<svg
      xmlns="http://www.w3.org/2000/svg"
      width="16"
      height="28"
      viewBox="0 0 16 28"
    >
      <g fill="none" fillRule="evenodd" stroke="none" strokeWidth="1">
        <g fill="#ccc" transform="translate(-1063 -3085) translate(1065 3093)">
          <path d="M11.812.685a.477.477 0 00-.35-.148c-.134 0-.25.05-.349.148l-1.008 1A6.012 6.012 0 008.204.473 5.856 5.856 0 006 .04c-1.423 0-2.664.43-3.724 1.292C1.215 2.194.516 3.318.18 4.704v.054c0 .068.025.126.074.175.05.05.108.074.175.074h1.544c.114 0 .191-.06.233-.179.217-.517.354-.82.41-.908A3.912 3.912 0 014.06 2.532 3.905 3.905 0 016 2.027c1.04 0 1.942.355 2.708 1.063L7.637 4.161a.478.478 0 00-.147.35c0 .134.049.25.147.348a.478.478 0 00.35.148h3.476c.134 0 .25-.05.349-.148a.477.477 0 00.147-.349V1.034a.476.476 0 00-.147-.35zM11.517 6.993h-1.49c-.114 0-.191.06-.233.179-.217.517-.354.82-.411.908A3.914 3.914 0 017.94 9.468c-.6.337-1.247.505-1.94.505a3.87 3.87 0 01-1.451-.28 4.004 4.004 0 01-1.25-.791l1.064-1.063a.477.477 0 00.147-.35.477.477 0 00-.147-.348.477.477 0 00-.35-.148H.539a.477.477 0 00-.35.148.477.477 0 00-.147.349v3.476c0 .134.049.25.147.349a.478.478 0 00.35.148c.134 0 .25-.05.349-.148l1-1.001a5.923 5.923 0 004.082 1.645c1.417 0 2.654-.43 3.709-1.292 1.055-.861 1.748-1.985 2.08-3.371a.239.239 0 00-.066-.229.24.24 0 00-.175-.074z"></path>
        </g>
      </g>
    </svg>